<svg width="120" height="120" viewBox="0 0 120 120" fill="none" xmlns="http://www.w3.org/2000/svg">
<path d="M58.9607 78.4642C53.4446 78.2035 48.241 75.8278 44.4307 71.8307C40.6205 67.8336 38.4964 62.5223 38.4998 57.0001C38.4998 45.1392 48.139 35.5001 59.9998 35.5001C71.5382 35.5001 80.9265 44.5659 81.464 55.9609L73.939 53.7034C73.3533 51.2194 72.1148 48.9368 70.3516 47.0917C68.5883 45.2466 66.3643 43.9059 63.9094 43.2081C61.4545 42.5104 58.8578 42.4809 56.3877 43.1228C53.9175 43.7647 51.6637 45.0546 49.859 46.8593C48.0544 48.6639 46.7645 50.9178 46.1226 53.3879C45.4807 55.858 45.5101 58.4547 46.2079 60.9097C46.9056 63.3646 48.2464 65.5886 50.0915 67.3518C51.9366 69.1151 54.2191 70.3536 56.7032 70.9393L58.9607 78.4642V78.4642ZM95.8332 57.0001C95.8332 58.0751 95.7973 59.1501 95.6898 60.2251L88.6307 58.1109C88.6665 57.7526 88.6665 57.3584 88.6665 57.0001C88.6665 41.1617 75.8382 28.3334 59.9998 28.3334C44.1615 28.3334 31.3332 41.1617 31.3332 57.0001C31.3332 72.8384 44.1615 85.6667 59.9998 85.6667C60.3582 85.6667 60.7523 85.6668 61.1107 85.6309L63.2248 92.6901C62.1498 92.7976 61.0748 92.8334 59.9998 92.8334C40.2198 92.8334 24.1665 76.7801 24.1665 57.0001C24.1665 37.2201 40.2198 21.1667 59.9998 21.1667C79.7798 21.1667 95.8332 37.2201 95.8332 57.0001ZM82.324 72.2651L95.8332 67.7501L59.9998 57.0001L70.7498 92.8334L75.2648 79.3242L90.5657 94.6251L97.6607 87.5301L82.324 72.2651Z" fill="url(#paint0_linear_213_6121)"/>
<defs>
<linearGradient id="paint0_linear_213_6121" x1="107.168" y1="-2.52659" x2="14.7209" y2="118.365" gradientUnits="userSpaceOnUse">
<stop offset="0.0104167" stop-color="#08ACFC"/>
<stop offset="0.270833" stop-color="#0069B5"/>
<stop offset="0.526042" stop-color="#08ACFC"/>
<stop offset="0.776042" stop-color="#00448A"/>
<stop offset="0.979167" stop-color="#08ACFC"/>
</linearGradient>
</defs>
</svg>
