<svg width="120" height="120" viewBox="0 0 120 120" fill="none" xmlns="http://www.w3.org/2000/svg">
<path d="M86.375 42.0417H76.2046L70.3333 35.625H51.0833V42.0417H67.51L73.3813 48.4583H86.375V86.9583H35.0417V58.0833H28.625V86.9583C28.625 90.4875 31.5125 93.375 35.0417 93.375H86.375C89.9042 93.375 92.7917 90.4875 92.7917 86.9583V48.4583C92.7917 44.9292 89.9042 42.0417 86.375 42.0417ZM44.6667 67.7083C44.6667 76.5633 51.8533 83.75 60.7083 83.75C69.5633 83.75 76.75 76.5633 76.75 67.7083C76.75 58.8533 69.5633 51.6667 60.7083 51.6667C51.8533 51.6667 44.6667 58.8533 44.6667 67.7083ZM60.7083 58.0833C66.0021 58.0833 70.3333 62.4146 70.3333 67.7083C70.3333 73.0021 66.0021 77.3333 60.7083 77.3333C55.4146 77.3333 51.0833 73.0021 51.0833 67.7083C51.0833 62.4146 55.4146 58.0833 60.7083 58.0833ZM35.0417 42.0417H44.6667V35.625H35.0417V26H28.625V35.625H19V42.0417H28.625V51.6667H35.0417V42.0417Z" fill="url(#paint0_linear_213_6117)"/>
<defs>
<linearGradient id="paint0_linear_213_6117" x1="102.337" y1="4.26879" x2="19.8426" y2="122.363" gradientUnits="userSpaceOnUse">
<stop offset="0.0104167" stop-color="#08ACFC"/>
<stop offset="0.270833" stop-color="#0069B5"/>
<stop offset="0.526042" stop-color="#08ACFC"/>
<stop offset="0.776042" stop-color="#00448A"/>
<stop offset="0.979167" stop-color="#08ACFC"/>
</linearGradient>
</defs>
</svg>
