<svg width="80" height="60" viewBox="0 0 80 60" fill="none" xmlns="http://www.w3.org/2000/svg">
<path d="M13.3487 49.6003V51.4233C11.8693 51.4519 10.3987 51.1932 9.02153 50.6622C7.64437 50.1311 6.38768 49.3381 5.32373 48.3287C4.23464 47.3183 3.37584 46.093 2.80381 44.7334C2.23178 43.3738 1.9595 41.9107 2.00487 40.4403V2H4.12573V40.4403C4.09485 41.6435 4.31132 42.8405 4.7622 43.9598C5.21309 45.079 5.88914 46.0976 6.74999 46.9547C7.61085 47.8118 8.63886 48.4898 9.77258 48.9482C10.9063 49.4066 12.1225 49.636 13.3487 49.6229V49.6003Z" fill="#1B3C4F"/>
<path d="M23.4099 21.8336C22.1336 21.8336 21.4935 21.2485 21.4897 20.0781C21.4897 18.9079 22.1317 18.317 23.4099 18.317C24.6881 18.317 25.3359 18.9079 25.3359 20.0781C25.3359 21.2485 24.6939 21.8336 23.4099 21.8336ZM24.4761 29.0018V58.2597H22.3495V29.0018H24.4761Z" fill="#1B3C4F"/>
<path d="M44.4566 9.6861V11.5091C43.2311 11.4951 42.0152 11.7239 40.8818 12.1818C39.7484 12.6396 38.7207 13.3171 37.8602 14.1739C36.9998 15.0306 36.3241 16.0488 35.8738 17.1678C35.4235 18.2867 35.2078 19.4833 35.2394 20.6859V37.8131H44.5254V39.6361H35.2394V50.8385H33.1129V20.6859C33.0657 19.2121 33.337 17.7451 33.909 16.3816C34.4811 15.0181 35.3408 13.7889 36.4317 12.7751C37.4967 11.7675 38.7536 10.976 40.1307 10.4459C41.5077 9.91588 42.9778 9.6577 44.4566 9.6861Z" fill="#1B3C4F"/>
<path d="M66.3697 42.1503H65.7965C63.7392 42.1591 61.7024 41.7497 59.8141 40.9479C57.9259 40.1461 56.2273 38.9692 54.8253 37.4915C53.339 36.0888 52.1582 34.4047 51.3542 32.541C50.5503 30.6774 50.1398 28.673 50.1479 26.6492C50.1337 24.65 50.5385 22.6693 51.3372 20.8302C52.1359 18.9911 53.3115 17.333 54.7909 15.9588C56.29 14.4835 58.0798 13.3235 60.0508 12.5495C62.0218 11.7757 64.1329 11.4041 66.255 11.4576C70.814 11.4576 74.7292 13.2374 78 16.7971L57.1697 36.9851C60.0395 39.2357 62.8024 40.361 65.4582 40.361C67.9605 40.3918 70.4252 39.7621 72.5944 38.538C74.683 37.3556 76.4659 35.7173 77.8052 33.7498V37.0695C76.3906 38.6818 74.634 39.9718 72.6591 40.8493C70.6839 41.7268 68.5376 42.1708 66.3697 42.1503ZM65.6761 13.2355C62.1566 13.2355 59.0383 14.571 56.3213 17.2416C53.6043 19.9124 52.2439 22.9882 52.2401 26.4692C52.1971 29.835 53.4546 33.0918 55.7596 35.5841L75.0598 16.7634C72.4892 14.4801 69.1426 13.2219 65.6761 13.2355Z" fill="#1B3C4F"/>
<path d="M14.9994 49.6003C14.9994 48.6887 14.2603 47.9496 13.3487 47.9496C12.437 47.9496 11.698 48.6887 11.698 49.6003H14.9994ZM13.3487 51.4233L13.3806 53.0737C14.2796 53.0563 14.9994 52.3225 14.9994 51.4233H13.3487ZM9.02153 50.6622L9.61547 49.122L9.61541 49.122L9.02153 50.6622ZM5.32373 48.3287L6.45983 47.1312C6.45539 47.127 6.45092 47.1228 6.44643 47.1186L5.32373 48.3287ZM2.80381 44.7334L4.32534 44.0932L4.32533 44.0932L2.80381 44.7334ZM2.00487 40.4403L3.6548 40.4913C3.65532 40.4743 3.65558 40.4573 3.65558 40.4403H2.00487ZM2.00487 2V0.349285C1.0932 0.349285 0.354152 1.08834 0.354152 2L2.00487 2ZM4.12573 2H5.77644C5.77644 1.08834 5.03739 0.349285 4.12573 0.349285V2ZM4.12573 40.4403L5.7759 40.4827C5.77626 40.4686 5.77644 40.4545 5.77644 40.4403H4.12573ZM6.74999 46.9547L5.58531 48.1245L5.58532 48.1245L6.74999 46.9547ZM9.77258 48.9482L9.15375 50.4786L9.15383 50.4786L9.77258 48.9482ZM13.3487 49.6229L13.3664 51.2735C14.2711 51.2637 14.9994 50.5276 14.9994 49.6229H13.3487ZM21.4897 20.0781H19.8389L19.839 20.0835L21.4897 20.0781ZM24.4761 29.0018H26.1268C26.1268 28.0902 25.3877 27.3511 24.4761 27.3511V29.0018ZM24.4761 58.2597V59.9105C25.3877 59.9105 26.1268 59.1714 26.1268 58.2597H24.4761ZM22.3495 58.2597H20.6988C20.6988 59.1714 21.4378 59.9105 22.3495 59.9105V58.2597ZM22.3495 29.0018V27.3511C21.4378 27.3511 20.6988 28.0902 20.6988 29.0018H22.3495ZM44.4566 9.6861H46.1073C46.1073 8.78679 45.3875 8.05296 44.4883 8.03569L44.4566 9.6861ZM44.4566 11.5091L44.4378 13.1597C44.8789 13.1647 45.3036 12.993 45.6172 12.6829C45.9308 12.3728 46.1073 11.9501 46.1073 11.5091H44.4566ZM40.8818 12.1818L41.5 13.7123L41.5002 13.7123L40.8818 12.1818ZM37.8602 14.1739L39.0249 15.3437L39.0249 15.3436L37.8602 14.1739ZM35.8738 17.1678L34.3424 16.5514L34.3424 16.5515L35.8738 17.1678ZM35.2394 20.6859H36.8901C36.8901 20.6715 36.8899 20.657 36.8895 20.6425L35.2394 20.6859ZM35.2394 37.8131H33.5887C33.5887 38.7248 34.3277 39.4638 35.2394 39.4638V37.8131ZM44.5254 37.8131H46.1761C46.1761 36.9014 45.437 36.1624 44.5254 36.1624V37.8131ZM44.5254 39.6361V41.2868C45.437 41.2868 46.1761 40.5477 46.1761 39.6361H44.5254ZM35.2394 39.6361V37.9854C34.3277 37.9854 33.5887 38.7244 33.5887 39.6361H35.2394ZM35.2394 50.8385V52.4892C36.1511 52.4892 36.8901 51.7501 36.8901 50.8385H35.2394ZM33.1129 50.8385H31.4621C31.4621 51.7501 32.2012 52.4892 33.1129 52.4892V50.8385ZM33.1129 20.6859H34.7636C34.7636 20.6683 34.7633 20.6507 34.7627 20.6331L33.1129 20.6859ZM33.909 16.3816L35.4312 17.0202L35.4312 17.0202L33.909 16.3816ZM36.4317 12.7751L37.5554 13.9842C37.559 13.9809 37.5626 13.9775 37.5662 13.9742L36.4317 12.7751ZM40.1307 10.4459L39.5377 8.90539L39.5377 8.90542L40.1307 10.4459ZM66.3697 42.1503L66.3853 40.4996C66.3801 40.4996 66.3749 40.4996 66.3697 40.4996V42.1503ZM65.7965 42.1503V40.4995L65.7894 40.4996L65.7965 42.1503ZM59.8141 40.9479L59.1689 42.4673L59.1689 42.4673L59.8141 40.9479ZM54.8253 37.4915L56.0228 36.3553C56.0019 36.3333 55.9804 36.3118 55.9583 36.291L54.8253 37.4915ZM51.3542 32.541L49.8385 33.1948L49.8386 33.1949L51.3542 32.541ZM50.1479 26.6492L51.7986 26.6557C51.7986 26.6496 51.7986 26.6435 51.7985 26.6374L50.1479 26.6492ZM51.3372 20.8302L49.8231 20.1726L49.8231 20.1727L51.3372 20.8302ZM54.7909 15.9588L55.9143 17.1683C55.9259 17.1575 55.9374 17.1465 55.9487 17.1354L54.7909 15.9588ZM60.0508 12.5495L59.4475 11.013L59.4474 11.013L60.0508 12.5495ZM66.255 11.4576L66.2134 13.1078C66.2273 13.1081 66.2411 13.1083 66.255 13.1083V11.4576ZM78 16.7971L79.1488 17.9825C79.7912 17.3599 79.8208 16.339 79.2155 15.6803L78 16.7971ZM57.1697 36.9851L56.0209 35.7997C55.6785 36.1316 55.4963 36.5953 55.5212 37.0714C55.5462 37.5476 55.7758 37.9897 56.151 38.284L57.1697 36.9851ZM65.4582 40.361L65.4785 38.7104C65.4718 38.7103 65.465 38.7103 65.4582 38.7103V40.361ZM72.5944 38.538L73.4057 39.9756L73.4077 39.9745L72.5944 38.538ZM77.8052 33.7498H79.4559C79.4559 33.0254 78.9836 32.3856 78.2912 32.1723C77.5989 31.959 76.8483 32.2221 76.4407 32.8209L77.8052 33.7498ZM77.8052 37.0695L79.046 38.1582C79.3102 37.8571 79.4559 37.4701 79.4559 37.0695H77.8052ZM72.6591 40.8493L73.3293 42.3579L73.3294 42.3578L72.6591 40.8493ZM65.6761 13.2355V14.8863L65.6826 14.8862L65.6761 13.2355ZM56.3213 17.2416L55.1642 16.0644L55.1642 16.0644L56.3213 17.2416ZM52.2401 26.4692L53.8906 26.4902C53.8907 26.4838 53.8908 26.4774 53.8908 26.471L52.2401 26.4692ZM55.7596 35.5841L54.5477 36.7049C54.8501 37.0319 55.2718 37.2228 55.717 37.2343C56.1622 37.2458 56.5932 37.0769 56.912 36.7659L55.7596 35.5841ZM75.0598 16.7634L76.2122 17.9453C76.5404 17.6253 76.7207 17.1833 76.7101 16.725C76.6994 16.2668 76.4987 15.8337 76.156 15.5293L75.0598 16.7634ZM11.698 49.6003V51.4233H14.9994V49.6003H11.698ZM13.3168 49.7729C12.0506 49.7974 10.7926 49.5759 9.61547 49.122L8.4276 52.2023C10.0048 52.8105 11.6879 53.1064 13.3806 53.0737L13.3168 49.7729ZM9.61541 49.122C8.43835 48.6681 7.36618 47.991 6.45983 47.1312L4.18763 49.5263C5.40918 50.6852 6.85038 51.5942 8.42765 52.2023L9.61541 49.122ZM6.44643 47.1186C5.528 46.2665 4.80576 45.2351 4.32534 44.0932L1.28227 45.3735C1.94592 46.9509 2.94129 48.3701 4.20103 49.5389L6.44643 47.1186ZM4.32533 44.0932C3.84497 42.9515 3.61676 41.724 3.6548 40.4913L0.354937 40.3894C0.302238 42.0973 0.618589 43.7961 1.28228 45.3735L4.32533 44.0932ZM3.65558 40.4403V2H0.354152V40.4403H3.65558ZM2.00487 3.65071H4.12573V0.349285H2.00487V3.65071ZM2.47501 2V40.4403H5.77644V2H2.47501ZM2.47556 40.398C2.43887 41.8273 2.69609 43.2486 3.23106 44.5766L6.29335 43.343C5.92655 42.4325 5.75082 41.4598 5.7759 40.4827L2.47556 40.398ZM3.23106 44.5766C3.766 45.9045 4.56725 47.1109 5.58531 48.1245L7.91467 45.7849C7.21103 45.0844 6.66018 44.2536 6.29335 43.343L3.23106 44.5766ZM5.58532 48.1245C6.60335 49.1381 7.81731 49.9381 9.15375 50.4786L10.3914 47.4179C9.46042 47.0414 8.61834 46.4855 7.91466 45.7849L5.58532 48.1245ZM9.15383 50.4786C10.4903 51.0189 11.9229 51.289 13.3664 51.2735L13.3309 47.9722C12.3222 47.9831 11.3223 47.7943 10.3913 47.4179L9.15383 50.4786ZM14.9994 49.6229V49.6003H11.698V49.6229H14.9994ZM23.4099 20.1829C23.2118 20.1829 23.1014 20.1596 23.054 20.1452C23.0129 20.1326 23.0391 20.1332 23.0864 20.1764C23.1367 20.2224 23.1582 20.2686 23.1616 20.2777C23.1618 20.2784 23.1565 20.2641 23.1511 20.2302C23.1457 20.1961 23.1406 20.1446 23.1404 20.0727L19.839 20.0835C19.8418 20.9621 20.0911 21.9113 20.8588 22.6131C21.5996 23.2903 22.5506 23.4843 23.4099 23.4843V20.1829ZM23.1404 20.0781C23.1404 20.0067 23.1453 19.9555 23.1506 19.9216C23.1559 19.888 23.1611 19.8738 23.1609 19.8745C23.1576 19.8835 23.1364 19.9292 23.0867 19.9748C23.04 20.0177 23.0141 20.0182 23.0551 20.0056C23.1023 19.9912 23.2124 19.9678 23.4099 19.9678V16.6663C22.5469 16.6663 21.5946 16.8631 20.8542 17.5427C20.0874 18.2465 19.8389 19.1973 19.8389 20.0781H23.1404ZM23.4099 19.9678C23.6073 19.9678 23.7182 19.9911 23.7666 20.006C23.8089 20.0189 23.7844 20.0191 23.7387 19.9773C23.6899 19.9327 23.6686 19.8875 23.665 19.8778C23.6648 19.8771 23.6852 19.9338 23.6852 20.0781H26.9866C26.9866 19.1932 26.7344 18.2425 25.9658 17.5402C25.2248 16.8631 24.273 16.6663 23.4099 16.6663V19.9678ZM23.6852 20.0781C23.6852 20.2241 23.6647 20.2807 23.6652 20.2792C23.6692 20.2683 23.6916 20.2211 23.7424 20.1748C23.7899 20.1315 23.8157 20.1314 23.7726 20.1445C23.7235 20.1594 23.6108 20.1829 23.4099 20.1829V23.4843C24.2704 23.4843 25.2239 23.2915 25.9664 22.6147C26.7379 21.9115 26.9866 20.9592 26.9866 20.0781H23.6852ZM22.8254 29.0018V58.2597H26.1268V29.0018H22.8254ZM24.4761 56.609H22.3495V59.9105H24.4761V56.609ZM24.0002 58.2597V29.0018H20.6988V58.2597H24.0002ZM22.3495 30.6525H24.4761V27.3511H22.3495V30.6525ZM42.8059 9.6861V11.5091H46.1073V9.6861H42.8059ZM44.4754 9.85847C43.0323 9.84204 41.5998 10.1113 40.2635 10.6512L41.5002 13.7123C42.4305 13.3364 43.4298 13.1482 44.4378 13.1597L44.4754 9.85847ZM40.2636 10.6512C38.9271 11.191 37.7133 11.9907 36.6955 13.0041L39.0249 15.3436C39.728 14.6435 40.5696 14.0881 41.5 13.7123L40.2636 10.6512ZM36.6955 13.0041C35.6777 14.0174 34.8768 15.2237 34.3424 16.5514L37.4051 17.7841C37.7714 16.874 38.3218 16.0437 39.0249 15.3437L36.6955 13.0041ZM34.3424 16.5515C33.8081 17.8794 33.5517 19.3004 33.5892 20.7293L36.8895 20.6425C36.8639 19.6662 37.0389 18.6941 37.4052 17.784L34.3424 16.5515ZM33.5887 20.6859V37.8131H36.8901V20.6859H33.5887ZM35.2394 39.4638H44.5254V36.1624H35.2394V39.4638ZM42.8747 37.8131V39.6361H46.1761V37.8131H42.8747ZM44.5254 37.9854H35.2394V41.2868H44.5254V37.9854ZM33.5887 39.6361V50.8385H36.8901V39.6361H33.5887ZM35.2394 49.1878H33.1129V52.4892H35.2394V49.1878ZM34.7636 50.8385V20.6859H31.4621V50.8385H34.7636ZM34.7627 20.6331C34.7231 19.3969 34.9506 18.1657 35.4312 17.0202L32.3869 15.743C31.7233 17.3245 31.4082 19.0273 31.463 20.7388L34.7627 20.6331ZM35.4312 17.0202C35.9119 15.8746 36.6352 14.8395 37.5554 13.9842L35.3079 11.5659C34.0465 12.7383 33.0503 14.1616 32.3869 15.743L35.4312 17.0202ZM37.5662 13.9742C38.4736 13.1156 39.5463 12.4397 40.7237 11.9864L39.5377 8.90542C37.9609 9.51239 36.5197 10.4193 35.2972 11.576L37.5662 13.9742ZM40.7237 11.9865C41.901 11.5333 43.1589 11.3122 44.4249 11.3365L44.4883 8.03569C42.7967 8.00321 41.1145 8.29849 39.5377 8.90539L40.7237 11.9865ZM66.3697 40.4996H65.7965V43.801H66.3697V40.4996ZM65.7894 40.4996C63.9555 40.5074 62.1407 40.1424 60.4593 39.4285L59.1689 42.4673C61.264 43.3569 63.5228 43.8107 65.8035 43.801L65.7894 40.4996ZM60.4593 39.4285C58.7781 38.7146 57.2679 37.6677 56.0228 36.3553L53.6278 38.6276C55.1868 40.2708 57.0738 41.5777 59.1689 42.4673L60.4593 39.4285ZM55.9583 36.291C54.6343 35.0415 53.5843 33.543 52.8699 31.8871L49.8386 33.1949C50.7322 35.2663 52.0437 37.1361 53.6923 38.692L55.9583 36.291ZM52.8699 31.8871C52.1557 30.2314 51.7914 28.4518 51.7986 26.6557L48.4972 26.6426C48.4882 28.8942 48.9449 31.1234 49.8385 33.1948L52.8699 31.8871ZM51.7985 26.6374C51.786 24.8692 52.144 23.1164 52.8513 21.4878L49.8231 20.1727C48.933 22.2223 48.4813 24.4309 48.4972 26.6609L51.7985 26.6374ZM52.8513 21.4878C53.5586 19.8592 54.6006 18.3885 55.9143 17.1683L53.6674 14.7494C52.0224 16.2774 50.7132 18.1231 49.8231 20.1726L52.8513 21.4878ZM55.9487 17.1354C57.2881 15.8173 58.8889 14.7792 60.6541 14.0861L59.4474 11.013C57.2707 11.8678 55.292 13.1497 53.633 14.7823L55.9487 17.1354ZM60.654 14.0861C62.4194 13.393 64.3111 13.0599 66.2134 13.1078L66.2966 9.80738C63.9546 9.7484 61.6243 10.1584 59.4475 11.013L60.654 14.0861ZM66.255 13.1083C70.3215 13.1083 73.8051 14.6714 76.7845 17.914L79.2155 15.6803C75.6533 11.8034 71.3064 9.80686 66.255 9.80686V13.1083ZM76.8512 15.6118L56.0209 35.7997L58.3185 38.1704L79.1488 17.9825L76.8512 15.6118ZM56.151 38.284C59.2043 40.6785 62.3167 42.0117 65.4582 42.0117V38.7103C63.2881 38.7103 60.8747 37.7929 58.1884 35.6862L56.151 38.284ZM65.4379 42.0116C68.2299 42.0459 70.9816 41.3435 73.4057 39.9756L71.7832 37.1004C69.8687 38.1808 67.6911 38.7376 65.4785 38.7104L65.4379 42.0116ZM73.4077 39.9745C75.7146 38.6685 77.6868 36.8572 79.1698 34.6787L76.4407 32.8209C75.245 34.5773 73.6514 36.0427 71.7812 37.1015L73.4077 39.9745ZM76.1545 33.7498V37.0695H79.4559V33.7498H76.1545ZM76.5644 35.9808C75.3086 37.4121 73.7472 38.5595 71.9888 39.3408L73.3294 42.3578C75.5207 41.3841 77.4725 39.9516 79.046 38.1582L76.5644 35.9808ZM71.989 39.3408C70.2302 40.1221 68.3178 40.5179 66.3853 40.4996L66.354 43.8009C68.7574 43.8237 71.1376 43.3315 73.3293 42.3579L71.989 39.3408ZM65.6761 11.5848C61.6859 11.5848 58.1618 13.1179 55.1642 16.0644L57.4785 18.4189C59.9148 16.0241 62.6273 14.8863 65.6761 14.8863V11.5848ZM55.1642 16.0644C52.1647 19.0128 50.5937 22.5003 50.5894 26.4673L53.8908 26.471C53.8941 23.4762 55.0439 20.812 57.4785 18.4188L55.1642 16.0644ZM50.5895 26.4481C50.541 30.2406 51.9584 33.9052 54.5477 36.7049L56.9715 34.4633C54.9508 32.2785 53.8531 29.4293 53.8906 26.4902L50.5895 26.4481ZM56.912 36.7659L76.2122 17.9453L73.9073 15.5816L54.6071 34.4023L56.912 36.7659ZM76.156 15.5293C73.2789 12.9737 69.5387 11.5696 65.6695 11.5848L65.6826 14.8862C68.7465 14.8742 71.6995 15.9865 73.9635 17.9976L76.156 15.5293Z" fill="#1B3C4F"/>
</svg>
