<svg width="26" height="26" viewBox="0 0 26 26" fill="none" xmlns="http://www.w3.org/2000/svg">
<g clip-path="url(#clip0_118_7689)">
<path d="M12.6187 1.93359C6.6015 1.93359 1.72363 6.81146 1.72363 12.8286C1.72363 18.8458 6.6015 23.7236 12.6187 23.7236C18.6358 23.7236 23.5137 18.8458 23.5137 12.8286C23.5137 6.81146 18.6358 1.93359 12.6187 1.93359ZM8.70325 6.26128C8.92773 6.24804 9.13063 6.38221 9.28445 6.62036L10.774 9.44518C10.9308 9.77991 10.8417 10.1383 10.6078 10.3775L9.92549 11.0598C9.88338 11.1175 9.85567 11.1824 9.855 11.2539C10.1166 12.2667 10.9103 13.2009 11.6106 13.8434C12.3108 14.4858 13.0634 15.3556 14.0404 15.5617C14.1611 15.5953 14.3091 15.6074 14.3955 15.5271L15.1881 14.7198C15.4617 14.5124 15.8576 14.4119 16.1497 14.5815H16.163L18.8508 16.1682C19.2453 16.4155 19.2862 16.8935 19.0037 17.1842L17.1525 19.0209C16.8791 19.3013 16.5159 19.3955 16.163 19.3959C14.6023 19.3492 13.1277 18.5832 11.9165 17.796C9.92831 16.3496 8.10461 14.5557 6.95969 12.3884C6.52058 11.4796 6.00476 10.32 6.05399 9.30558C6.05838 8.92396 6.16163 8.5501 6.43037 8.30413L8.28167 6.45283C8.42589 6.33012 8.56856 6.26923 8.70325 6.26128Z" fill="#FEBC11"/>
</g>
<defs>
<clipPath id="clip0_118_7689">
<rect width="21.79" height="21.79" fill="white" transform="translate(1.72363 1.93359)"/>
</clipPath>
</defs>
</svg>
