<svg width="511" height="459" viewBox="0 0 511 459" fill="none" xmlns="http://www.w3.org/2000/svg">
<path fill-rule="evenodd" clip-rule="evenodd" d="M164.492 23.019C101.26 23.019 50 74.279 50 137.511V279.481C50 340.569 97.8415 390.482 158.101 393.798L165.255 423.741L235.265 393.973H381.264C444.496 393.973 495.756 342.713 495.756 279.481V137.511C495.756 74.2789 444.496 23.019 381.264 23.019H164.492Z" fill="#F3F3F5"/>
<path d="M317.453 326.171C305.636 326.171 296.056 335.751 296.056 347.568C296.056 359.386 305.636 368.965 317.453 368.965V326.171ZM463.554 323.72L448.816 308.208C448.811 308.213 448.807 308.217 448.802 308.221L463.554 323.72ZM463.554 45.8479L448.802 61.3472C448.807 61.3514 448.811 61.3555 448.816 61.3597L463.554 45.8479ZM85.7635 45.8479L100.502 61.3597C100.507 61.3555 100.511 61.3513 100.515 61.3472L85.7635 45.8479ZM85.7635 323.72L100.521 308.226C100.514 308.22 100.508 308.214 100.502 308.208L85.7635 323.72ZM144.296 366.798C156.062 367.891 166.487 359.239 167.581 347.472C168.674 335.705 160.021 325.28 148.254 324.187L144.296 366.798ZM317.458 368.963C329.276 368.963 338.855 359.383 338.855 347.566C338.855 335.748 329.276 326.169 317.458 326.169V368.963ZM235.271 370.864L225.802 351.676L225.801 351.677L235.271 370.864ZM235.162 370.918L244.632 390.106H244.632L235.162 370.918ZM160.616 395.791L172.147 377.766L172.135 377.758L172.123 377.751L160.616 395.791ZM156.08 326.526L177.379 328.57L177.38 328.557L177.382 328.545L156.08 326.526ZM178.28 319.063C179.395 307.298 170.762 296.857 158.997 295.742C147.233 294.627 136.792 303.26 135.677 315.025L178.28 319.063ZM317.453 368.965C357.222 368.965 389.1 369.007 414.081 365.812C439.571 362.551 461.104 355.592 478.306 339.22L448.802 308.221C440.948 315.697 429.775 320.661 408.652 323.363C387.018 326.13 358.374 326.171 317.453 326.171V368.965ZM478.293 339.232C495.66 322.73 503.185 301.828 506.684 277.088C510.079 253.078 510.029 222.515 510.029 184.784H467.235C467.235 223.786 467.184 250.777 464.311 271.095C461.54 290.683 456.525 300.883 448.816 308.208L478.293 339.232ZM510.029 184.784C510.029 147.053 510.079 116.49 506.684 92.4802C503.185 67.7402 495.66 46.8379 478.293 30.336L448.816 61.3597C456.525 68.6853 461.54 78.885 464.311 98.4731C467.184 118.792 467.235 145.782 467.235 184.784H510.029ZM478.306 30.3486C461.104 13.9764 439.571 7.0168 414.081 3.75658C389.1 0.561506 357.222 0.602703 317.453 0.602703V43.3973C358.374 43.3973 387.018 43.4385 408.652 46.2054C429.775 48.9071 440.948 53.8715 448.802 61.3472L478.306 30.3486ZM317.453 0.602703H231.864V43.3973H317.453V0.602703ZM231.864 0.602703C192.096 0.602703 160.218 0.561506 135.237 3.75658C109.747 7.0168 88.2135 13.9764 71.0117 30.3486L100.515 61.3472C108.37 53.8715 119.542 48.9071 140.666 46.2054C162.299 43.4385 190.943 43.3973 231.864 43.3973V0.602703ZM71.0249 30.336C53.6572 46.838 46.1332 67.7402 42.6342 92.4802C39.2384 116.49 39.2886 147.053 39.2886 184.784H82.0832C82.0832 145.782 82.1334 118.792 85.0071 98.4731C87.7775 78.8849 92.7922 68.6853 100.502 61.3597L71.0249 30.336ZM39.2886 184.784C39.2886 222.515 39.2384 253.078 42.6342 277.088C46.1332 301.828 53.6572 322.73 71.0249 339.232L100.502 308.208C92.7922 300.883 87.7775 290.683 85.0071 271.095C82.1334 250.777 82.0832 223.786 82.0832 184.784H39.2886ZM71.0065 339.215C90.191 357.486 114.781 364.056 144.296 366.798L148.254 324.187C122.137 321.761 109.281 316.569 100.521 308.226L71.0065 339.215ZM317.458 326.169C286.135 326.169 253.471 338.022 225.802 351.676L244.74 390.053C270.264 377.457 295.887 368.963 317.458 368.963V326.169ZM225.801 351.677L225.692 351.731L244.632 390.106L244.741 390.052L225.801 351.677ZM225.692 351.731C203.874 362.499 189.088 369.764 178.417 373.705C173.131 375.657 170.191 376.268 168.795 376.393C167.614 376.499 169.521 376.086 172.147 377.766L149.085 413.815C156.97 418.86 165.491 419.654 172.604 419.018C179.503 418.401 186.54 416.324 193.241 413.85C206.543 408.938 223.771 400.402 244.632 390.106L225.692 351.731ZM172.123 377.751C176.916 380.808 174.6 384.687 174.288 373.671C174.017 364.063 175.319 350.039 177.379 328.57L134.78 324.482C132.839 344.706 131.146 361.957 131.511 374.879C131.836 386.394 133.789 404.059 149.109 413.831L172.123 377.751ZM177.382 328.545L178.28 319.063L135.677 315.025L134.778 324.507L177.382 328.545Z" fill="#F3F3F5"/>
<path fill-rule="evenodd" clip-rule="evenodd" d="M112.413 114.019C58.0611 114.019 14 158.08 14 212.432V334.464C14 386.973 55.1228 429.876 106.919 432.726L113.069 458.465L173.247 432.877H298.742C353.094 432.877 397.155 388.816 397.155 334.464V212.432C397.155 158.08 353.094 114.019 298.742 114.019H112.413Z" fill="white"/>
<path d="M239.708 375.045C229.55 375.045 221.316 383.279 221.316 393.437C221.316 403.595 229.55 411.829 239.708 411.829V375.045ZM365.291 372.938L352.622 359.605C352.618 359.609 352.614 359.612 352.611 359.616L365.291 372.938ZM365.291 134.09L352.611 147.412C352.614 147.416 352.618 147.419 352.622 147.423L365.291 134.09ZM40.5558 134.09L53.2246 147.423C53.2283 147.419 53.2321 147.416 53.2359 147.412L40.5558 134.09ZM40.5558 372.938L53.2404 359.62C53.2351 359.615 53.2298 359.61 53.2246 359.605L40.5558 372.938ZM90.8679 409.967C100.982 410.906 109.943 403.469 110.883 393.354C111.822 383.24 104.385 374.279 94.2706 373.34L90.8679 409.967ZM239.712 411.827C249.87 411.827 258.104 403.593 258.104 393.435C258.104 383.277 249.87 375.043 239.712 375.043V411.827ZM169.067 413.462L160.928 396.968L160.927 396.969L169.067 413.462ZM104.896 434.887L114.808 419.394L114.797 419.388L114.787 419.381L104.896 434.887ZM100.997 375.35L119.305 377.107L119.306 377.096L119.307 377.085L100.997 375.35ZM120.08 368.935C121.038 358.822 113.617 349.848 103.505 348.889C93.3924 347.931 84.4176 355.352 83.4592 365.464L120.08 368.935ZM176.592 203.087C169.231 196.087 157.589 196.38 150.589 203.74C143.589 211.101 143.882 222.743 151.243 229.743L176.592 203.087ZM229.263 303.937C236.624 310.937 248.266 310.644 255.265 303.284C262.265 295.923 261.973 284.281 254.612 277.281L229.263 303.937ZM254.612 229.743C261.973 222.743 262.265 211.101 255.265 203.74C248.265 196.38 236.624 196.087 229.263 203.087L254.612 229.743ZM151.243 277.281C143.882 284.281 143.589 295.923 150.589 303.284C157.589 310.644 169.231 310.937 176.592 303.937L151.243 277.281ZM239.708 411.829C273.891 411.829 301.292 411.865 322.765 409.118C344.676 406.316 363.185 400.334 377.971 386.261L352.611 359.616C345.859 366.042 336.256 370.309 318.098 372.631C299.503 375.009 274.882 375.045 239.708 375.045V411.829ZM377.959 386.272C392.888 372.087 399.355 354.121 402.363 332.855C405.282 312.217 405.239 285.946 405.239 253.514H368.454C368.454 287.038 368.411 310.239 365.941 327.704C363.56 344.541 359.249 353.308 352.622 359.605L377.959 386.272ZM405.239 253.514C405.239 221.082 405.282 194.811 402.363 174.173C399.355 152.907 392.888 134.941 377.959 120.756L352.622 147.423C359.249 153.72 363.56 162.487 365.941 179.324C368.411 196.789 368.454 219.99 368.454 253.514H405.239ZM377.971 120.767C363.185 106.694 344.676 100.712 322.765 97.9095C301.292 95.1631 273.891 95.1985 239.708 95.1985V131.983C274.882 131.983 299.503 132.019 318.098 134.397C336.256 136.719 345.859 140.986 352.611 147.412L377.971 120.767ZM239.708 95.1985H166.139V131.983H239.708V95.1985ZM166.139 95.1985C131.955 95.1985 104.554 95.1631 83.0813 97.9095C61.1708 100.712 42.6617 106.694 27.8757 120.767L53.2359 147.412C59.9873 140.986 69.5909 136.719 87.7481 134.397C106.343 132.019 130.965 131.983 166.139 131.983V95.1985ZM27.887 120.756C12.9584 134.941 6.49101 152.907 3.48339 174.173C0.564535 194.811 0.607676 221.082 0.607676 253.514H37.3923C37.3923 219.99 37.4355 196.789 39.9056 179.324C42.2869 162.487 46.5974 153.72 53.2246 147.423L27.887 120.756ZM0.607676 253.514C0.607676 285.946 0.564535 312.217 3.48339 332.855C6.49101 354.12 12.9584 372.087 27.887 386.272L53.2246 359.605C46.5974 353.308 42.2869 344.541 39.9056 327.704C37.4355 310.239 37.3923 287.038 37.3923 253.514H0.607676ZM27.8712 386.257C44.3615 401.962 65.4978 407.61 90.8679 409.967L94.2706 373.34C71.8208 371.254 60.7705 366.792 53.2404 359.62L27.8712 386.257ZM239.712 375.043C212.788 375.043 184.711 385.232 160.928 396.968L177.206 429.955C199.146 419.129 221.17 411.827 239.712 411.827V375.043ZM160.927 396.969C142.141 406.241 129.409 412.499 120.219 415.895C115.667 417.577 113.134 418.106 111.929 418.214C110.908 418.305 112.549 417.949 114.808 419.394L94.9842 450.38C101.768 454.721 109.099 455.4 115.217 454.851C121.15 454.319 127.204 452.53 132.97 450.399C144.416 446.169 159.246 438.82 177.207 429.954L160.927 396.969ZM114.787 419.381C118.907 422.009 116.916 425.343 116.648 415.874C116.415 407.616 117.534 395.561 119.305 377.107L82.6888 373.593C81.0204 390.977 79.5646 405.805 79.8784 416.913C80.1581 426.81 81.8365 441.994 95.0055 450.394L114.787 419.381ZM119.307 377.085L120.08 368.935L83.4592 365.464L82.6867 373.615L119.307 377.085ZM151.243 229.743L190.253 266.84L215.602 240.184L176.592 203.087L151.243 229.743ZM190.253 266.84L229.263 303.937L254.612 277.281L215.602 240.184L190.253 266.84ZM215.602 266.84L254.612 229.743L229.263 203.087L190.253 240.184L215.602 266.84ZM190.253 240.184L151.243 277.281L176.592 303.937L215.602 266.84L190.253 240.184Z" fill="#FEBC11"/>
</svg>
