<svg width="80" height="60" viewBox="0 0 80 60" fill="none" xmlns="http://www.w3.org/2000/svg">
<path d="M13.3487 49.6003V51.4233C11.8693 51.4519 10.3987 51.1932 9.02153 50.6622C7.64437 50.1311 6.38768 49.3381 5.32373 48.3287C4.23464 47.3183 3.37584 46.093 2.80381 44.7334C2.23178 43.3738 1.9595 41.9107 2.00487 40.4403V2H4.12573V40.4403C4.09485 41.6435 4.31132 42.8405 4.7622 43.9598C5.21309 45.079 5.88914 46.0976 6.74999 46.9547C7.61085 47.8118 8.63886 48.4898 9.77258 48.9482C10.9063 49.4066 12.1225 49.636 13.3487 49.6229V49.6003Z" fill="white"/>
<path d="M23.4099 21.8336C22.1336 21.8336 21.4935 21.2485 21.4897 20.0781C21.4897 18.9079 22.1317 18.317 23.4099 18.317C24.6881 18.317 25.3359 18.9079 25.3359 20.0781C25.3359 21.2485 24.6939 21.8336 23.4099 21.8336ZM24.4761 29.0018V58.2597H22.3495V29.0018H24.4761Z" fill="white"/>
<path d="M44.4566 9.6861V11.5091C43.2311 11.4951 42.0152 11.7239 40.8818 12.1818C39.7484 12.6396 38.7207 13.3171 37.8602 14.1739C36.9998 15.0306 36.3241 16.0488 35.8738 17.1678C35.4235 18.2867 35.2078 19.4833 35.2394 20.6859V37.8131H44.5254V39.6361H35.2394V50.8385H33.1129V20.6859C33.0657 19.2121 33.337 17.7451 33.909 16.3816C34.4811 15.0181 35.3408 13.7889 36.4317 12.7751C37.4967 11.7675 38.7536 10.976 40.1307 10.4459C41.5077 9.91588 42.9778 9.6577 44.4566 9.6861Z" fill="white"/>
<path d="M66.3697 42.1503H65.7965C63.7392 42.1591 61.7024 41.7497 59.8141 40.9479C57.9259 40.1461 56.2273 38.9692 54.8253 37.4915C53.339 36.0888 52.1582 34.4047 51.3542 32.541C50.5503 30.6774 50.1398 28.673 50.1479 26.6492C50.1337 24.65 50.5385 22.6693 51.3372 20.8302C52.1359 18.9911 53.3115 17.333 54.7909 15.9588C56.29 14.4835 58.0798 13.3235 60.0508 12.5495C62.0218 11.7757 64.1329 11.4041 66.255 11.4576C70.814 11.4576 74.7292 13.2374 78 16.7971L57.1697 36.9851C60.0395 39.2357 62.8024 40.361 65.4582 40.361C67.9605 40.3918 70.4252 39.7621 72.5944 38.538C74.683 37.3556 76.4659 35.7173 77.8052 33.7498V37.0695C76.3906 38.6818 74.634 39.9718 72.6591 40.8493C70.6839 41.7268 68.5376 42.1708 66.3697 42.1503ZM65.6761 13.2355C62.1566 13.2355 59.0383 14.571 56.3213 17.2416C53.6043 19.9124 52.2439 22.9882 52.2401 26.4692C52.1971 29.835 53.4546 33.0918 55.7596 35.5841L75.0598 16.7634C72.4892 14.4801 69.1426 13.2219 65.6761 13.2355Z" fill="white"/>
<path d="M13.3487 49.6003V51.4233C11.8693 51.4519 10.3987 51.1932 9.02153 50.6622C7.64437 50.1311 6.38768 49.3381 5.32373 48.3287C4.23464 47.3183 3.37584 46.093 2.80381 44.7334C2.23178 43.3738 1.9595 41.9107 2.00487 40.4403V2H4.12573V40.4403C4.09485 41.6435 4.31132 42.8405 4.7622 43.9598C5.21309 45.079 5.88914 46.0976 6.74999 46.9547C7.61085 47.8118 8.63886 48.4898 9.77258 48.9482C10.9063 49.4066 12.1225 49.636 13.3487 49.6229V49.6003Z" stroke="white" stroke-width="3.30143" stroke-linejoin="round"/>
<path d="M23.4099 21.8336C22.1336 21.8336 21.4935 21.2485 21.4897 20.0781C21.4897 18.9079 22.1317 18.317 23.4099 18.317C24.6881 18.317 25.3359 18.9079 25.3359 20.0781C25.3359 21.2485 24.6939 21.8336 23.4099 21.8336ZM24.4761 29.0018V58.2597H22.3495V29.0018H24.4761Z" stroke="white" stroke-width="3.30143" stroke-linejoin="round"/>
<path d="M44.4566 9.6861V11.5091C43.2311 11.4951 42.0152 11.7239 40.8818 12.1818C39.7484 12.6396 38.7207 13.3171 37.8602 14.1739C36.9998 15.0306 36.3241 16.0488 35.8738 17.1678C35.4235 18.2867 35.2078 19.4833 35.2394 20.6859V37.8131H44.5254V39.6361H35.2394V50.8385H33.1129V20.6859C33.0657 19.2121 33.337 17.7451 33.909 16.3816C34.4811 15.0181 35.3408 13.7889 36.4317 12.7751C37.4967 11.7675 38.7536 10.976 40.1307 10.4459C41.5077 9.91588 42.9778 9.6577 44.4566 9.6861Z" stroke="white" stroke-width="3.30143" stroke-linejoin="round"/>
<path d="M66.3697 42.1503H65.7965C63.7392 42.1591 61.7024 41.7497 59.8141 40.9479C57.9259 40.1461 56.2273 38.9692 54.8253 37.4915C53.339 36.0888 52.1582 34.4047 51.3542 32.541C50.5503 30.6774 50.1398 28.673 50.1479 26.6492C50.1337 24.65 50.5385 22.6693 51.3372 20.8302C52.1359 18.9911 53.3115 17.333 54.7909 15.9588C56.29 14.4835 58.0798 13.3235 60.0508 12.5495C62.0218 11.7757 64.1329 11.4041 66.255 11.4576C70.814 11.4576 74.7292 13.2374 78 16.7971L57.1697 36.9851C60.0395 39.2357 62.8024 40.361 65.4582 40.361C67.9605 40.3918 70.4252 39.7621 72.5944 38.538C74.683 37.3556 76.4659 35.7173 77.8052 33.7498V37.0695C76.3906 38.6818 74.634 39.9718 72.6591 40.8493C70.6839 41.7268 68.5376 42.1708 66.3697 42.1503ZM65.6761 13.2355C62.1566 13.2355 59.0383 14.571 56.3213 17.2416C53.6043 19.9124 52.2439 22.9882 52.2401 26.4692C52.1971 29.835 53.4546 33.0918 55.7596 35.5841L75.0598 16.7634C72.4892 14.4801 69.1426 13.2219 65.6761 13.2355Z" stroke="white" stroke-width="3.30143" stroke-linejoin="round"/>
</svg>
