<svg width="120" height="120" viewBox="0 0 120 120" fill="none" xmlns="http://www.w3.org/2000/svg">
<path fill-rule="evenodd" clip-rule="evenodd" d="M41.9587 30.8334C35.8145 30.8334 30.8337 35.8142 30.8337 41.9584V79.0417C30.8337 85.1859 35.8145 90.1667 41.9587 90.1667H79.042C85.1862 90.1667 90.167 85.1859 90.167 79.0417V41.9584C90.167 35.8142 85.1862 30.8334 79.042 30.8334H41.9587ZM23.417 41.9584C23.417 31.7181 31.7184 23.4167 41.9587 23.4167H79.042C89.2823 23.4167 97.5837 31.7181 97.5837 41.9584V79.0417C97.5837 89.282 89.2823 97.5834 79.042 97.5834H41.9587C31.7184 97.5834 23.417 89.282 23.417 79.0417V41.9584ZM74.1616 50.3784C75.6557 51.7792 75.7314 54.1259 74.3307 55.6201L60.4244 70.4534C59.0499 71.9196 56.7575 72.024 55.2554 70.6888L46.9116 63.2721C45.3809 61.9114 45.243 59.5675 46.6037 58.0368C47.9643 56.506 50.3083 56.3682 51.839 57.7288L57.4836 62.7463L68.92 50.5475C70.3207 49.0534 72.6675 48.9777 74.1616 50.3784Z" fill="url(#paint0_linear_213_6075)"/>
<defs>
<linearGradient id="paint0_linear_213_6075" x1="107.178" y1="-0.505053" x2="13.8276" y2="121.509" gradientUnits="userSpaceOnUse">
<stop offset="0.0104167" stop-color="#08ACFC"/>
<stop offset="0.270833" stop-color="#0069B5"/>
<stop offset="0.526042" stop-color="#08ACFC"/>
<stop offset="0.776042" stop-color="#00448A"/>
<stop offset="0.979167" stop-color="#08ACFC"/>
</linearGradient>
</defs>
</svg>
