<svg width="120" height="120" viewBox="0 0 120 120" fill="none" xmlns="http://www.w3.org/2000/svg">
<path d="M92.7435 55.5592C92.7435 36.689 77.4471 21.3926 58.5768 21.3926C39.7066 21.3926 24.4102 36.689 24.4102 55.5592C24.4102 74.4295 39.7066 89.7259 58.5768 89.7259" stroke="url(#paint0_linear_213_6083)" stroke-width="4.5625" stroke-linecap="round" stroke-linejoin="round"/>
<path fill-rule="evenodd" clip-rule="evenodd" d="M64.034 20.0128L61.9933 21.5627C64.034 20.0128 64.0346 20.0136 64.0352 20.0144L64.0367 20.0164L64.0403 20.0212L64.0503 20.0345L64.0813 20.076C64.1067 20.1102 64.1415 20.1577 64.1851 20.218C64.2724 20.3388 64.395 20.5114 64.5477 20.7343C64.8531 21.18 65.2795 21.8273 65.7863 22.6636C66.7995 24.3353 68.1371 26.7673 69.471 29.8576C70.8058 32.9499 72.1414 36.7117 73.1423 41.0377H90.5908C92.0061 41.0377 93.1533 42.185 93.1533 43.6002C93.1533 45.0154 92.0061 46.1627 90.5908 46.1627H74.1133C74.5483 49.1012 74.8058 52.2415 74.8058 55.5585C74.8058 56.8294 73.8744 57.9082 72.6172 58.0936C71.36 58.279 70.1568 57.515 69.7899 56.2982L66.734 46.1627H48.2259C47.7556 49.0816 47.4725 52.2237 47.4725 55.5585C47.4725 58.8933 47.7556 62.0355 48.2259 64.9544H58.5767C59.9919 64.9544 61.1392 66.1016 61.1392 67.5169C61.1392 68.9321 59.9919 70.0794 58.5767 70.0794H49.2835C50.1669 73.5816 51.277 76.6553 52.3877 79.2284C53.6162 82.0746 54.8411 84.2978 55.7499 85.7972C56.204 86.5465 56.5783 87.1136 56.8335 87.4861C56.961 87.6722 57.0587 87.8096 57.1216 87.8966C57.153 87.94 57.1757 87.9709 57.1891 87.989L57.2007 88.0045L57.2017 88.0058C58.0565 89.1328 57.8365 90.7394 56.7099 91.595C55.5828 92.451 53.9753 92.2313 53.1193 91.1042L55.16 89.5544C53.1193 91.1042 53.1187 91.1034 53.1181 91.1026L53.113 91.0959L53.103 91.0826L53.0721 91.0411C53.0467 91.0068 53.0118 90.9594 52.9682 90.899C52.8809 90.7783 52.7584 90.6057 52.6056 90.3828C52.3003 89.9371 51.8738 89.2897 51.367 88.4535C50.3539 86.7818 49.0163 84.3498 47.6823 81.2595C46.3475 78.1672 45.012 74.4053 44.0111 70.0794H26.5625C25.1473 70.0794 24 68.9321 24 67.5169C24 66.1016 25.1473 64.9544 26.5625 64.9544H43.04C42.605 62.0159 42.3475 58.8755 42.3475 55.5585C42.3475 52.2415 42.605 49.1012 43.04 46.1627H26.5625C25.1473 46.1627 24 45.0154 24 43.6002C24 42.185 25.1473 41.0377 26.5625 41.0377H44.0111C45.012 36.7117 46.3475 32.9499 47.6823 29.8576C49.0163 26.7673 50.3539 24.3353 51.367 22.6636C51.8738 21.8273 52.3003 21.18 52.6056 20.7343C52.7584 20.5114 52.8809 20.3388 52.9682 20.218C53.0118 20.1577 53.0467 20.1102 53.0721 20.076L53.103 20.0345L53.113 20.0212L53.1181 20.0144C53.1187 20.0136 53.1193 20.0128 55.16 21.5627L53.1193 20.0128C53.9753 18.8858 55.5828 18.6661 56.7099 19.522C57.8359 20.3772 58.0562 21.9827 57.2029 23.1096C57.2022 23.1106 57.2014 23.1116 57.2007 23.1126L57.1891 23.1281C57.1757 23.1462 57.153 23.177 57.1216 23.2205C57.0587 23.3075 56.961 23.4448 56.8335 23.631C56.5783 24.0034 56.204 24.5706 55.7499 25.3199C54.8411 26.8193 53.6162 29.0425 52.3877 31.8887C51.277 34.4617 50.1669 37.5354 49.2835 41.0377H65.1887L59.5399 22.3024C59.182 21.1153 59.7253 19.8423 60.8301 19.2794C61.9348 18.7166 63.2841 19.0254 64.034 20.0128Z" fill="url(#paint1_linear_213_6083)"/>
<path fill-rule="evenodd" clip-rule="evenodd" d="M74.508 67.8199L78.1168 85.407L81.7341 78.1411L89.8014 77.2266L74.508 67.8199ZM90.9947 77.9617C90.9947 77.9617 90.9942 77.9613 90.9934 77.9603ZM93.6744 73.592C95.3422 74.6183 96.1678 76.4039 96.0987 78.0762C96.0272 79.806 94.8821 81.8065 92.4684 82.0821L85.0801 82.9196L81.7695 89.5697C81.7693 89.57 81.7696 89.5693 81.7695 89.5697C80.6869 91.7478 78.4134 92.143 76.7608 91.6166C75.1661 91.1086 73.7719 89.7214 73.3772 87.8055L69.0894 66.9098C69.0893 66.9092 69.0892 66.9086 69.0891 66.908C69.089 66.9078 69.0891 66.9083 69.0891 66.908C68.7418 65.22 69.3019 63.4648 70.7502 62.4514C72.1979 61.4385 74.0376 61.5129 75.5041 62.4158C75.5044 62.4159 75.5039 62.4156 75.5041 62.4158C75.5045 62.416 75.5057 62.4167 75.5061 62.417L93.6744 73.592ZM77.1796 87.2897C77.1799 87.289 77.1802 87.2884 77.1806 87.2877Z" fill="url(#paint2_linear_213_6083)"/>
<defs>
<linearGradient id="paint0_linear_213_6083" x1="101.583" y1="-0.64773" x2="15.5749" y2="111.769" gradientUnits="userSpaceOnUse">
<stop offset="0.0104167" stop-color="#08ACFC"/>
<stop offset="0.270833" stop-color="#0069B5"/>
<stop offset="0.526042" stop-color="#08ACFC"/>
<stop offset="0.776042" stop-color="#00448A"/>
<stop offset="0.979167" stop-color="#08ACFC"/>
</linearGradient>
<linearGradient id="paint1_linear_213_6083" x1="102.099" y1="-4.58324" x2="8.85476" y2="110.685" gradientUnits="userSpaceOnUse">
<stop offset="0.0104167" stop-color="#08ACFC"/>
<stop offset="0.270833" stop-color="#0069B5"/>
<stop offset="0.526042" stop-color="#08ACFC"/>
<stop offset="0.776042" stop-color="#00448A"/>
<stop offset="0.979167" stop-color="#08ACFC"/>
</linearGradient>
<linearGradient id="paint2_linear_213_6083" x1="99.61" y1="52.0033" x2="60.8605" y2="97.6104" gradientUnits="userSpaceOnUse">
<stop offset="0.0104167" stop-color="#08ACFC"/>
<stop offset="0.270833" stop-color="#0069B5"/>
<stop offset="0.526042" stop-color="#08ACFC"/>
<stop offset="0.776042" stop-color="#00448A"/>
<stop offset="0.979167" stop-color="#08ACFC"/>
</linearGradient>
</defs>
</svg>
