<svg width="120" height="120" viewBox="0 0 120 120" fill="none" xmlns="http://www.w3.org/2000/svg">
<path d="M60 35.8571C60 38.6374 61.073 41.164 62.8279 43.051C68.0893 41.0458 73.8184 40.6052 79.3246 41.7824C80.2518 40.4132 80.8449 38.8456 81.0562 37.2055C81.2675 35.5655 81.0911 33.8987 80.5412 32.3392C79.9913 30.7797 79.0832 29.3709 77.8899 28.2262C76.6966 27.0814 75.2514 26.2325 73.6704 25.7477C72.0895 25.263 70.4168 25.1559 68.7869 25.435C67.157 25.7141 65.6153 26.3718 64.2858 27.355C62.9562 28.3382 61.8759 29.6196 61.1315 31.0962C60.3872 32.5729 59.9996 34.2035 60 35.8571V35.8571ZM70.5714 30.5714C71.9733 30.5714 73.3177 31.1283 74.309 32.1196C75.3003 33.1108 75.8571 34.4553 75.8571 35.8571C75.8571 37.259 75.3003 38.6034 74.309 39.5947C73.3177 40.586 71.9733 41.1429 70.5714 41.1429C69.1696 41.1429 67.8251 40.586 66.8339 39.5947C65.8426 38.6034 65.2857 37.259 65.2857 35.8571C65.2857 34.4553 65.8426 33.1108 66.8339 32.1196C67.8251 31.1283 69.1696 30.5714 70.5714 30.5714V30.5714ZM44.46 78.1429H45.237C44.7479 76.4151 44.4205 74.6455 44.2591 72.8571C33.1327 72.8307 28.2857 69.765 28.2857 63.7446V59.6429C28.2857 58.9419 28.5642 58.2697 29.0598 57.7741C29.5554 57.2784 30.2276 57 30.9286 57H47.3143C48.2816 55.1077 49.4497 53.337 50.787 51.7143H30.9286C28.8258 51.7143 26.8091 52.5496 25.3222 54.0365C23.8353 55.5234 23 57.5401 23 59.6429V63.7393C23 73.3699 30.6431 78.1429 44.46 78.1429ZM44.1429 20C47.6475 20 51.0086 21.3922 53.4868 23.8704C55.9649 26.3485 57.3571 29.7096 57.3571 33.2143C57.3571 36.7189 55.9649 40.08 53.4868 42.5582C51.0086 45.0364 47.6475 46.4286 44.1429 46.4286C40.6382 46.4286 37.2771 45.0364 34.7989 42.5582C32.3208 40.08 30.9286 36.7189 30.9286 33.2143C30.9286 29.7096 32.3208 26.3485 34.7989 23.8704C37.2771 21.3922 40.6382 20 44.1429 20V20ZM44.1429 25.2857C42.0401 25.2857 40.0234 26.121 38.5365 27.6079C37.0496 29.0948 36.2143 31.1115 36.2143 33.2143C36.2143 35.3171 37.0496 37.3337 38.5365 38.8206C40.0234 40.3075 42.0401 41.1429 44.1429 41.1429C46.2456 41.1429 48.2623 40.3075 49.7492 38.8206C51.2361 37.3337 52.0714 35.3171 52.0714 33.2143C52.0714 31.1115 51.2361 29.0948 49.7492 27.6079C48.2623 26.121 46.2456 25.2857 44.1429 25.2857ZM97 70.2143C97 76.5226 94.494 82.5726 90.0333 87.0333C85.5726 91.494 79.5226 94 73.2143 94C66.9059 94 60.8559 91.494 56.3952 87.0333C51.9346 82.5726 49.4286 76.5226 49.4286 70.2143C49.4286 63.9059 51.9346 57.8559 56.3952 53.3952C60.8559 48.9346 66.9059 46.4286 73.2143 46.4286C79.5226 46.4286 85.5726 48.9346 90.0333 53.3952C94.494 57.8559 97 63.9059 97 70.2143V70.2143ZM75.8571 59.6429C75.8571 58.9419 75.5787 58.2697 75.0831 57.7741C74.5874 57.2784 73.9152 57 73.2143 57C72.5134 57 71.8411 57.2784 71.3455 57.7741C70.8499 58.2697 70.5714 58.9419 70.5714 59.6429V67.5714H62.6429C61.9419 67.5714 61.2697 67.8499 60.7741 68.3455C60.2784 68.8411 60 69.5134 60 70.2143C60 70.9152 60.2784 71.5874 60.7741 72.0831C61.2697 72.5787 61.9419 72.8571 62.6429 72.8571H70.5714V80.7857C70.5714 81.4866 70.8499 82.1589 71.3455 82.6545C71.8411 83.1501 72.5134 83.4286 73.2143 83.4286C73.9152 83.4286 74.5874 83.1501 75.0831 82.6545C75.5787 82.1589 75.8571 81.4866 75.8571 80.7857V72.8571H83.7857C84.4866 72.8571 85.1589 72.5787 85.6545 72.0831C86.1501 71.5874 86.4286 70.9152 86.4286 70.2143C86.4286 69.5134 86.1501 68.8411 85.6545 68.3455C85.1589 67.8499 84.4866 67.5714 83.7857 67.5714H75.8571V59.6429Z" fill="url(#paint0_linear_213_6079)"/>
<defs>
<linearGradient id="paint0_linear_213_6079" x1="106.572" y1="-3.86804" x2="13.4321" y2="117.871" gradientUnits="userSpaceOnUse">
<stop offset="0.0104167" stop-color="#08ACFC"/>
<stop offset="0.270833" stop-color="#0069B5"/>
<stop offset="0.526042" stop-color="#08ACFC"/>
<stop offset="0.776042" stop-color="#00448A"/>
<stop offset="0.979167" stop-color="#08ACFC"/>
</linearGradient>
</defs>
</svg>
