<svg width="120" height="120" viewBox="0 0 120 120" fill="none" xmlns="http://www.w3.org/2000/svg">
<path fill-rule="evenodd" clip-rule="evenodd" d="M51.0811 22.2854C51.0811 20.3524 49.5141 18.7854 47.5811 18.7854C45.6481 18.7854 44.0811 20.3524 44.0811 22.2854V25.8167H40.5537C30.8574 25.8167 22.9971 33.677 22.9971 43.3733V78.5148C22.9971 88.211 30.8574 96.0714 40.5537 96.0714H82.7235C92.4197 96.0714 100.28 88.211 100.28 78.5148V43.3733C100.28 33.677 92.4197 25.8167 82.7235 25.8167H79.1992V22.2854C79.1992 20.3524 77.6322 18.7854 75.6992 18.7854C73.7662 18.7854 72.1992 20.3524 72.1992 22.2854V25.8167H51.0811V22.2854ZM93.2801 46.8977V43.3733C93.2801 37.543 88.5537 32.8167 82.7235 32.8167H79.1992V36.342C79.1992 38.275 77.6322 39.842 75.6992 39.842C73.7662 39.842 72.1992 38.275 72.1992 36.342V32.8167H51.0811V36.342C51.0811 38.275 49.5141 39.842 47.5811 39.842C45.6481 39.842 44.0811 38.275 44.0811 36.342V32.8167H40.5537C34.7234 32.8167 29.9971 37.543 29.9971 43.3733V46.8977H93.2801ZM29.9971 53.8977H93.2801V78.5148C93.2801 84.345 88.5537 89.0714 82.7235 89.0714H40.5537C34.7234 89.0714 29.9971 84.345 29.9971 78.5148V53.8977Z" fill="url(#paint0_linear_213_6071)"/>
<defs>
<linearGradient id="paint0_linear_213_6071" x1="110.277" y1="-6.1425" x2="13" y2="120.999" gradientUnits="userSpaceOnUse">
<stop offset="0.0104167" stop-color="#08ACFC"/>
<stop offset="0.270833" stop-color="#0069B5"/>
<stop offset="0.526042" stop-color="#08ACFC"/>
<stop offset="0.776042" stop-color="#00448A"/>
<stop offset="0.979167" stop-color="#08ACFC"/>
</linearGradient>
</defs>
</svg>
