<svg width="26" height="26" viewBox="0 0 26 26" fill="none" xmlns="http://www.w3.org/2000/svg">
<path d="M13.001 1.62744C10.6315 1.63024 8.35981 2.57276 6.68431 4.24826C5.00881 5.92376 4.06628 8.19543 4.06349 10.5649C4.06065 12.5013 4.69316 14.3851 5.86399 15.9274C5.86399 15.9274 6.10774 16.2484 6.14755 16.2947L13.001 24.3774L19.8577 16.2906C19.8934 16.2476 20.138 15.9274 20.138 15.9274L20.1388 15.925C21.309 14.3834 21.9413 12.5004 21.9385 10.5649C21.9357 8.19543 20.9932 5.92376 19.3177 4.24826C17.6422 2.57276 15.3705 1.63024 13.001 1.62744ZM13.001 13.8149C12.3582 13.8149 11.7298 13.6243 11.1954 13.2672C10.6609 12.9101 10.2444 12.4025 9.99838 11.8087C9.75239 11.2148 9.68803 10.5613 9.81344 9.9309C9.93884 9.30046 10.2484 8.72136 10.7029 8.26684C11.1574 7.81232 11.7365 7.50279 12.3669 7.37739C12.9974 7.25199 13.6508 7.31635 14.2447 7.56233C14.8386 7.80832 15.3461 8.22488 15.7033 8.75934C16.0604 9.2938 16.251 9.92215 16.251 10.5649C16.2499 11.4266 15.9072 12.2526 15.2979 12.8618C14.6886 13.4711 13.8626 13.8139 13.001 13.8149Z" fill="#FEBC11"/>
</svg>
