<svg width="26" height="26" viewBox="0 0 26 26" fill="none" xmlns="http://www.w3.org/2000/svg">
<path fill-rule="evenodd" clip-rule="evenodd" d="M2 12.75C2 15.6011 3.13259 18.3354 5.1486 20.3514C7.16462 22.3674 9.89892 23.5 12.75 23.5C15.6011 23.5 18.3354 22.3674 20.3514 20.3514C22.3674 18.3354 23.5 15.6011 23.5 12.75C23.5 9.89892 22.3674 7.16462 20.3514 5.1486C18.3354 3.13259 15.6011 2 12.75 2C9.89892 2 7.16462 3.13259 5.1486 5.1486C3.13259 7.16462 2 9.89892 2 12.75ZM21.6571 12.75C21.6571 15.1123 20.7187 17.3779 19.0483 19.0483C17.3779 20.7187 15.1123 21.6571 12.75 21.6571C10.3877 21.6571 8.12211 20.7187 6.4517 19.0483C4.78129 17.3779 3.84286 15.1123 3.84286 12.75C3.84286 10.3877 4.78129 8.12211 6.4517 6.4517C8.12211 4.78129 10.3877 3.84286 12.75 3.84286C15.1123 3.84286 17.3779 4.78129 19.0483 6.4517C20.7187 8.12211 21.6571 10.3877 21.6571 12.75Z" fill="#FEBC11"/>
<path fill-rule="evenodd" clip-rule="evenodd" d="M8.14282 12.75C8.14282 18.3056 9.97462 22.8857 12.75 22.8857C15.5253 22.8857 17.3571 18.3056 17.3571 12.75C17.3571 7.19437 15.5253 2.61426 12.75 2.61426C9.97462 2.61426 8.14282 7.19437 8.14282 12.75ZM15.5143 12.75C15.5143 17.3719 14.0461 21.0428 12.75 21.0428C11.4538 21.0428 9.98568 17.3719 9.98568 12.75C9.98568 8.12809 11.4538 4.45711 12.75 4.45711C14.0461 4.45711 15.5143 8.12809 15.5143 12.75Z" fill="#FEBC11"/>
<path d="M4.88957 7.18136L6.12551 5.81519C6.24837 5.92576 6.38229 6.03633 6.5248 6.14321C8.08632 7.31281 10.5791 8.03521 13.3004 8.03521C15.6236 8.03521 17.7871 7.51061 19.3585 6.61253C19.7369 6.3963 20.0735 6.16164 20.3647 5.91224L21.5613 7.31404C21.1615 7.65313 20.7304 7.95344 20.2737 8.2109C18.4112 9.2773 15.932 9.87684 13.3004 9.87684C10.2019 9.87684 7.32337 9.04387 5.41909 7.6175C5.23598 7.48033 5.05929 7.33479 4.88957 7.18136ZM4.88957 18.3392L6.12551 19.7054C6.24837 19.5936 6.38229 19.4843 6.5248 19.3774C8.08632 18.2078 10.5791 17.4854 13.3004 17.4854C15.6236 17.4854 17.7871 18.01 19.3585 18.9081C19.7369 19.1243 20.0735 19.359 20.3647 19.6084L21.5613 18.2066C21.161 17.8681 20.73 17.5678 20.2737 17.3097C18.4112 16.2433 15.932 15.6438 13.3004 15.6438C10.2019 15.6438 7.32337 16.4767 5.41909 17.9031C5.23597 18.0403 5.05928 18.1858 4.88957 18.3392ZM2.61426 13.6719V11.829H22.8857V13.6719H2.61426Z" fill="#FEBC11"/>
</svg>
